<?xml version="1.0" encoding="UTF-8"?>
<svg version="1.1" xmlns="http://www.w3.org/2000/svg" width="1024" height="1024">
<path d="M0 0 C22.16494478 3.34274109 50.26335804 29.18273175 67.4453125 42.69140625 C79.31244986 51.95610121 95.77483782 56.54859787 111 55 C113.079649 53.13105708 113.079649 53.13105708 114.3125 50.375 C117.0230906 45.57126541 119.93844926 41.29273809 123.375 37 C123.84550781 36.40936768 124.31601562 35.81873535 124.80078125 35.21020508 C126.19462396 33.46861967 127.59582956 31.73326505 129 30 C130.23556641 28.47052734 130.23556641 28.47052734 131.49609375 26.91015625 C135.59131468 21.87572782 139.7497475 16.9041375 144 12 C148.20699727 12.50960577 150.1891634 14.81606294 153.10546875 17.7421875 C153.83072502 18.46669601 153.83072502 18.46669601 154.57063293 19.20584106 C155.59537545 20.23292297 156.61642887 21.2636969 157.6340332 22.29785156 C159.15638156 23.84340718 160.69118625 25.37561221 162.22851562 26.90625 C168.58748625 33.28358184 174.39946481 39.93782285 180 47 C181.07337664 48.30492574 182.14984969 49.60731542 183.23046875 50.90625 C184.21712399 52.10336114 185.20279112 53.30128732 186.1875 54.5 C186.72721436 55.15653564 187.26692871 55.81307129 187.82299805 56.48950195 C190.89462946 60.26939468 193.833318 64.11012637 196.6640625 68.07421875 C197.27354736 68.925 197.88303223 69.77578125 198.51098633 70.65234375 C199.68036051 72.29793007 200.83726695 73.95247447 201.97924805 75.6171875 C205.71527988 80.87766322 209.31945037 83.99288433 215 87 C216.06287231 87.60485229 216.06287231 87.60485229 217.1472168 88.22192383 C219.3117141 89.44993682 221.49516477 90.63502594 223.6875 91.8125 C224.42033203 92.21919922 225.15316406 92.62589844 225.90820312 93.04492188 C231.16258125 96.00429192 231.16258125 96.00429192 237 96 C239.67407033 94.190527 239.67407033 94.190527 242.3125 91.6875 C254.39535635 81.10430916 268.08985372 72.93635821 282 65 C286.14913805 68.57552449 288.37803531 72.84153039 290.875 77.625 C291.34405762 78.52307373 291.81311523 79.42114746 292.29638672 80.34643555 C302.11120437 99.67105454 309.91564124 120.25928152 317.16064453 140.66723633 C320.30193801 149.36614221 324.4601373 154.78905194 331.5 160.6875 C332.16386719 161.25533203 332.82773437 161.82316406 333.51171875 162.40820312 C334.78502669 163.49216687 336.06848146 164.56436011 337.36328125 165.62255859 C339 167 339 167 340.90625 169.01953125 C346.07996126 171.44229529 353.39633273 167.55505095 358.44140625 165.7578125 C360.81622216 164.88323816 363.18988313 164.0055226 365.5625 163.125 C390.59503578 154 390.59503578 154 399 154 C401.42053132 163.92019267 403.34234526 173.87619446 405.0625 183.9375 C405.19417572 184.70424042 405.32585144 185.47098083 405.46151733 186.26095581 C408.02248608 201.2745741 409.67297675 216.18218568 410.33129883 231.40185547 C410.91280524 244.25916282 413.71088263 252.3706269 421 263 C421.34650101 263.73403046 421.69300201 264.46806091 422.05000305 265.22433472 C423.46789957 267.93008994 424.77551983 269.89366168 427 272 C431.35635948 273.26031562 435.55104664 273.05096966 440.0546875 272.87890625 C441.31137238 272.86617172 442.56805725 272.85343719 443.86282349 272.84031677 C447.18929569 272.7985468 450.5101167 272.71788112 453.83502197 272.61798096 C457.23327008 272.52555935 460.63210479 272.48473512 464.03125 272.43945312 C470.6890517 272.34033011 477.34419991 272.18981728 484 272 C483.40063226 282.62908175 482.6459549 293.22578868 481.5 303.8125 C481.42362305 304.53591583 481.34724609 305.25933167 481.26855469 306.00466919 C480.22820224 315.60189458 478.68598313 324.98859175 476.59375 334.4140625 C476.38206177 335.37364365 476.17037354 336.33322479 475.95227051 337.32188416 C474.90129402 342.03868511 473.80508476 346.73940964 472.64648438 351.4309082 C469.80530039 363.2743658 469.80530039 363.2743658 472.703125 374.90454102 C474.38879515 378.92799957 475.30130164 383.00205322 476.25 387.25 C476.51200195 388.3969912 476.51200195 388.3969912 476.77929688 389.56715393 C477.19135668 391.37693578 477.59644651 393.1883024 478 395 C483.60073045 396.37029744 489.20173421 397.73947052 494.80297852 399.10766602 C496.70279101 399.57188596 498.60253244 400.03639683 500.50219727 400.5012207 C503.25517812 401.17478384 506.0083753 401.84745189 508.76171875 402.51953125 C509.6528537 402.73715118 510.54398865 402.95477112 511.46212769 403.1789856 C517.53193956 404.65619179 523.61158624 406.07448516 529.71020508 407.4284668 C532 408 532 408 534 409 C531.97867103 415.40640472 529.60066267 421.57650494 526.9296875 427.73828125 C526.53567749 428.64966858 526.14166748 429.56105591 525.73571777 430.50006104 C524.45713886 433.44126706 523.16813603 436.37766658 521.875 439.3125 C521.43569153 440.3116745 520.99638306 441.310849 520.54376221 442.34030151 C513.35000936 458.61016112 505.30380868 473.87034723 495.47021484 488.68969727 C494.98504395 489.45209717 494.49987305 490.21449707 494 491 C493.60780273 491.61383545 493.21560547 492.2276709 492.81152344 492.86010742 C491.62215214 495.99634069 491.77727803 498.82792004 491.8046875 502.171875 C491.8075174 502.8542926 491.81034729 503.53671021 491.81326294 504.23980713 C491.82441902 506.41005307 491.84951443 508.57987971 491.875 510.75 C491.88503574 512.22525444 491.89416056 513.70051537 491.90234375 515.17578125 C491.92434313 518.78398942 491.95884117 522.39195375 492 526 C492.5576001 526.28085449 493.1152002 526.56170898 493.68969727 526.85107422 C505.02139519 532.58967419 515.89810216 538.54048231 526.29785156 545.83886719 C528.03162577 547.02157375 529.79647124 548.13023375 531.5859375 549.2265625 C532.69195313 549.91492188 533.79796875 550.60328125 534.9375 551.3125 C536.40509766 552.20388672 536.40509766 552.20388672 537.90234375 553.11328125 C540 555 540 555 540.59375 557.41015625 C539.77824555 560.96725788 538.10895274 562.52816083 535.5625 565.125 C534.63048523 566.09934164 533.7008467 567.07596112 532.7734375 568.0546875 C532.30389648 568.54678711 531.83435547 569.03888672 531.35058594 569.54589844 C529.35437777 571.69510593 527.52354938 573.9634701 525.6875 576.25 C521.56922428 581.34709125 517.31341771 586.30775638 513.00195312 591.24121094 C510.31906226 594.3133536 507.65700883 597.39563267 505.0625 600.54296875 C498.95519084 607.91071375 492.47606202 614.54828664 485.3425293 620.93945312 C478.8699598 626.79402249 476.60095147 631.58095114 474.9375 640.0625 C474.61828769 641.65856154 474.29422508 643.25366225 473.96484375 644.84765625 C473.75782837 645.8996521 473.75782837 645.8996521 473.54663086 646.97290039 C473 649 473 649 471.93969727 650.94702148 C470.73576698 653.57727604 470.55958109 655.13369422 471 658 C472.76522723 660.40661061 472.76522723 660.40661061 475.2421875 662.625 C476.139375 663.49044434 477.0365625 664.35588867 477.9609375 665.24755859 C478.43756836 665.6973407 478.91419922 666.1471228 479.40527344 666.61053467 C487.76414182 674.5129283 495.42534518 682.53306141 502 692 C503.04157544 693.4375661 504.08322514 694.87507841 505.125 696.3125 C505.74375 697.199375 506.3625 698.08625 507 699 C505.62350758 702.24608276 504.22026589 703.87538334 501.34375 705.890625 C500.20039185 706.69560425 500.20039185 706.69560425 499.03393555 707.5168457 C498.19773682 708.08878662 497.36153809 708.66072754 496.5 709.25 C495.62577393 709.85481201 494.75154785 710.45962402 493.85083008 711.08276367 C483.44156537 718.19562508 472.67890021 724.73946943 461.88720703 731.25097656 C459.39174919 732.76268466 456.90930696 734.29221107 454.43359375 735.8359375 C448.93060564 739.2461442 443.55220487 742.30825484 437.5 744.6875 C427.19987979 748.83233447 423.65906972 754.80146879 418.89453125 764.44140625 C417.65415991 766.94510663 416.63413731 768.40188991 414.69921875 770.52734375 C412.68550172 772.92706639 412.68550172 772.92706639 413.13232422 776.10327148 C414.1764827 780.7925831 415.9831724 784.5770481 418.18359375 788.8203125 C418.59916031 789.64199921 419.01472687 790.46368591 419.44288635 791.31027222 C420.76500715 793.9200961 422.1006735 796.52268298 423.4375 799.125 C424.76794401 801.73580072 426.09554154 804.34801995 427.42140198 806.96115112 C428.24506226 808.58222417 429.07185603 810.20171002 429.90220642 811.81936646 C434.96419279 821.7256426 434.96419279 821.7256426 435.07373047 825.62402344 C434 828 434 828 430.95361328 829.61816406 C429.58352956 830.10611987 428.2048132 830.57021723 426.8203125 831.015625 C426.0729332 831.27294403 425.32555389 831.53026306 424.55552673 831.79537964 C422.08579567 832.6366938 419.60664616 833.44457032 417.125 834.25 C415.40673175 834.82249011 413.68855235 835.39524696 411.97045898 835.96826172 C391.42808719 842.73655141 370.46975375 848.40709108 349.17431641 852.23583984 C339.43131502 854.58129395 332.03980478 863.26673326 325 870 C324.17012573 870.68412964 324.17012573 870.68412964 323.32348633 871.38208008 C321.8081491 872.91387899 321.8081491 872.91387899 321.87133789 875.0234375 C321.98727295 875.79945313 322.10320801 876.57546875 322.22265625 877.375 C322.34729248 878.26517822 322.47192871 879.15535645 322.6003418 880.07250977 C322.82911011 881.52161743 322.82911011 881.52161743 323.0625 883 C323.2066333 884.001521 323.3507666 885.00304199 323.49926758 886.03491211 C323.98193455 889.35946913 324.48945982 892.67961528 325 896 C325.55213917 899.65779898 326.10150066 903.3159924 326.64819336 906.97460938 C327.00219625 909.32971418 327.3621912 911.68392767 327.72875977 914.03710938 C327.97710571 915.66036133 327.97710571 915.66036133 328.23046875 917.31640625 C328.37895264 918.26974854 328.52743652 919.22309082 328.68041992 920.20532227 C329.01959056 923.17131635 329.12184406 926.01737564 329 929 C327.1238889 930.8761111 323.92179629 930.13764096 321.42333984 930.14526367 C320.73527756 930.14862228 320.04721527 930.1519809 319.33830261 930.15544128 C317.04582949 930.16499505 314.75342934 930.16689796 312.4609375 930.16796875 C310.86162282 930.17118316 309.26230844 930.17454737 307.66299438 930.17805481 C304.29517946 930.18406048 300.92739022 930.18589373 297.55957031 930.18530273 C293.2843812 930.18520214 289.00936206 930.19874002 284.73421288 930.21607494 C281.42063678 930.2273172 278.10709982 930.22921808 274.79350662 930.22869301 C273.22056122 930.22985921 271.64761434 930.23420279 270.07468796 930.24202538 C261.01322505 930.2827967 252.31025043 929.85405386 243.35317993 928.42939758 C234.17498052 927.25406649 228.76957331 929.504535 220.6875 933.5625 C219.04297852 934.33303711 219.04297852 934.33303711 217.36523438 935.11914062 C216.32044922 935.63798828 215.27566406 936.15683594 214.19921875 936.69140625 C213.24877686 937.15748291 212.29833496 937.62355957 211.3190918 938.10375977 C208.19284898 940.65997915 207.66175364 943.18237537 207 947 C206.85803696 947.81709946 206.71607391 948.63419891 206.56980896 949.47605896 C206.10240607 952.37433342 205.682886 955.27657868 205.2734375 958.18359375 C205.12089508 959.23909927 204.96835266 960.2946048 204.81118774 961.38209534 C204.32792977 964.73326422 203.85137015 968.0853458 203.375 971.4375 C203.04731766 973.7181626 202.71919739 975.99876233 202.390625 978.27929688 C201.58867827 983.85214662 200.79221993 989.42575967 200 995 C196.33497724 995.80691256 193.90425032 996.01177867 190.24609375 995.1015625 C189.32376953 994.8742041 188.40144531 994.6468457 187.45117188 994.41259766 C185.9594043 994.02273682 185.9594043 994.02273682 184.4375 993.625 C182.86258789 993.221604 182.86258789 993.221604 181.25585938 992.81005859 C169.51191196 989.72563266 157.9858487 985.98165773 146.46728516 982.15234375 C143.02676403 981.00889496 139.5822584 979.87822496 136.13671875 978.75 C133.98674749 978.04237016 131.83699739 977.33406795 129.6875 976.625 C128.70974609 976.30354004 127.73199219 975.98208008 126.72460938 975.65087891 C122.81130204 974.34759059 118.96760855 973.03492544 115.20703125 971.3359375 C107.51087795 968.12998813 100.8121451 969.48759025 92.8125 970.75 C91.03069336 971.00523437 91.03069336 971.00523437 89.21289062 971.265625 C88.07658203 971.4409375 86.94027344 971.61625 85.76953125 971.796875 C84.73417236 971.95510742 83.69881348 972.11333984 82.63208008 972.27636719 C79.78767106 973.05837519 78.7342982 973.65284253 77 976 C76.0158929 978.72588958 75.13994548 981.41525355 74.3125 984.1875 C71.65157094 992.61900616 68.15125179 1000.25916328 64.02001953 1008.05664062 C62.29417156 1011.34475691 60.65146083 1014.67408817 59 1018 C58 1020 57 1022 56 1024 C51.69311107 1023.4826747 48.80854272 1022.55949316 45.1875 1020.1875 C42.03734706 1018.20337382 39.00387479 1016.48098782 35.5625 1015.0625 C29.96870682 1012.68341749 25.0686072 1009.32321905 20 1006 C17.23653526 1004.28680083 14.47266961 1002.57444864 11.703125 1000.87109375 C9.53171066 999.36804828 7.66399672 997.85819454 5.69921875 996.11328125 C1.28926294 992.25951986 -3.63088387 989.41171457 -8.65429688 986.4375 C-10.46686407 985.34082069 -12.2379402 984.17611675 -14 983 C-14 982.34 -14 981.68 -14 981 C-14.66 981 -15.32 981 -16 981 C-16.7425 980.236875 -17.485 979.47375 -18.25 978.6875 C-22.82408926 974.21736731 -27.48790891 972.66948335 -33.7109375 971.61328125 C-34.95488281 971.39736328 -36.19882812 971.18144531 -37.48046875 970.95898438 C-38.76566406 970.74564453 -40.05085938 970.53230469 -41.375 970.3125 C-42.69676399 970.08615723 -44.01838053 969.85895158 -45.33984375 969.63085938 C-48.55854912 969.07874568 -51.77848565 968.53543615 -55 968 C-55.30309082 968.7844751 -55.60618164 969.5689502 -55.91845703 970.37719727 C-59.08951262 978.06718601 -66.04116165 984.43320476 -71.43920898 990.68725586 C-75.39984898 995.27891518 -79.26223533 999.93790149 -83.0859375 1004.64453125 C-85.36619504 1007.4506441 -87.67791413 1010.22847815 -90 1013 C-94.06746022 1011.42826478 -96.50686184 1008.50878431 -99.3125 1005.3125 C-100.29679926 1004.2110068 -101.28247038 1003.11073792 -102.26953125 1002.01171875 C-102.97843506 1001.221604 -102.97843506 1001.221604 -103.70166016 1000.41552734 C-105.23473719 998.74407555 -106.84930043 997.17977514 -108.5 995.625 C-112.25515321 991.94120362 -115.38572739 987.77172834 -118.59277344 983.61694336 C-122.02082833 979.19302569 -125.58347295 974.91531828 -129.25 970.6875 C-134.10521557 965.0781879 -138.76148493 959.37119108 -143.1796875 953.40771484 C-144.04918712 952.23421971 -144.9221562 951.06328839 -145.79833984 949.89477539 C-146.66046371 948.74469518 -147.51540158 947.58918038 -148.36181641 946.42749023 C-152.08452149 941.47666851 -155.99038279 939.25317932 -161.6875 937.125 C-166.21484961 935.39097787 -170.37274871 933.26156492 -174.578125 930.85546875 C-177.97992161 929.6538664 -179.53416392 929.89441071 -183 931 C-186.18503852 932.95695752 -189.10986646 935.21181241 -192.0625 937.5 C-193.76341814 938.78375176 -195.46524336 940.06630254 -197.16796875 941.34765625 C-197.99474121 941.97430176 -198.82151367 942.60094727 -199.67333984 943.24658203 C-208.69305409 950.0440204 -217.94440151 955.88168391 -228 961 C-241.39811389 936.82034506 -254.45617258 910.5842335 -262.19921875 883.96875 C-265.05543474 874.58833537 -269.33968683 869.98204563 -277 864 C-277.8765625 863.19949219 -278.753125 862.39898438 -279.65625 861.57421875 C-280.4915625 860.82785156 -281.326875 860.08148437 -282.1875 859.3125 C-282.92355469 858.64863281 -283.65960938 857.98476563 -284.41796875 857.30078125 C-289.00789937 854.98845614 -294.21704858 856.64360373 -298.93066406 858.18334961 C-300.29500613 858.66547295 -301.65658999 859.15545741 -303.015625 859.65234375 C-304.52992919 860.18690202 -306.04425272 860.72140549 -307.55859375 861.25585938 C-309.90030575 862.09337211 -312.24079416 862.93418354 -314.58056641 863.77709961 C-323.6606267 867.03530652 -332.34843617 869.91779073 -342 871 C-345.3494377 865.8307165 -346.33958315 860.98110938 -347.5 855 C-347.82363525 853.34871094 -347.82363525 853.34871094 -348.15380859 851.6640625 C-351.00884745 836.41434259 -352.41454285 820.94724347 -353.44992065 805.47714233 C-353.65116735 802.51627651 -353.87388826 799.55716187 -354.09735107 796.59790039 C-354.24529298 794.50411717 -354.35887723 792.41039787 -354.47119141 790.31445312 C-355.17391924 780.90279481 -357.66235353 774.72842227 -363 767 C-363.88858927 765.59135443 -364.77329864 764.18024612 -365.65234375 762.765625 C-366.41137014 761.59200436 -367.17297935 760.42004899 -367.9375 759.25 C-368.33517578 758.63640625 -368.73285156 758.0228125 -369.14257812 757.390625 C-370.09261853 755.92550245 -371.04591761 754.46249364 -372 753 C-373.01936646 753.1071936 -373.01936646 753.1071936 -374.05932617 753.21655273 C-385.13948271 754.23336601 -396.19595648 754.1110919 -407.3125 754.0625 C-409.32486867 754.05747354 -411.33723857 754.05291266 -413.34960938 754.04882812 C-418.23310354 754.03791664 -423.11653799 754.02071559 -428 754 C-428.14145674 744.46780118 -427.87263579 735.17288925 -426.8125 725.6875 C-426.68085449 724.49181396 -426.54920898 723.29612793 -426.41357422 722.06420898 C-424.39150989 704.73076353 -420.91013696 687.64287179 -416.52392578 670.75805664 C-413.34336152 658.18829242 -415.78284528 645.27008538 -421.76611328 633.80029297 C-428.13957678 625.81082561 -440.9169426 624.96784845 -450.47802734 623.53808594 C-454.8575991 622.86897626 -459.09430491 621.87428742 -463.375 620.75 C-464.55835938 620.46125 -465.74171875 620.1725 -466.9609375 619.875 C-470.99033968 618.71486364 -474.38523561 617.10861256 -478 615 C-475.91306802 601.73307528 -467.43768 588.54732639 -461.62011719 576.58154297 C-459.30157247 571.80917041 -456.99257103 567.04684317 -454.87890625 562.1796875 C-453.04193795 557.98875982 -450.90077863 554.02919806 -448.625 550.0625 C-448.2640625 549.42376953 -447.903125 548.78503906 -447.53125 548.12695312 C-447.16257812 547.47791016 -446.79390625 546.82886719 -446.4140625 546.16015625 C-446.03596436 545.48629883 -445.65786621 544.81244141 -445.26831055 544.11816406 C-444 542 -444 542 -442.42895508 539.82714844 C-437.29126953 532.41129375 -436.51112092 524.92206906 -436.4375 516.125 C-436.42601929 515.04751999 -436.42601929 515.04751999 -436.41430664 513.94827271 C-436.43366595 505.40162233 -436.43366595 505.40162233 -439.50439453 497.59228516 C-443.66109196 493.61663783 -448.75758721 491.54299871 -454.01171875 489.36376953 C-459.67311098 486.78006553 -464.78281252 483.24509152 -470 479.875 C-472.03957709 478.59821845 -474.08110176 477.32454018 -476.125 476.0546875 C-483.95919193 471.1713939 -483.95919193 471.1713939 -484.625 468.375 C-483.83480634 464.10795424 -482.12920032 462.49455297 -479.1953125 459.40625 C-476.59779827 456.55915255 -474.30628475 453.51926806 -472 450.4375 C-468.69998798 446.06462394 -465.29576881 442.00430278 -461.27734375 438.26953125 C-459.86990248 437.00575191 -459.86990248 437.00575191 -459 435 C-458.34 435 -457.68 435 -457 435 C-456.78730469 434.46890625 -456.57460938 433.9378125 -456.35546875 433.390625 C-454.47759028 430.07863184 -451.91994012 427.49023747 -449.3125 424.75 C-448.21652148 423.58420359 -447.12146421 422.41754041 -446.02734375 421.25 C-445.50124512 420.68925781 -444.97514648 420.12851562 -444.43310547 419.55078125 C-442.6895936 417.66410538 -441.02799738 415.71615516 -439.375 413.75 C-436.77720696 410.70650717 -433.93151109 408.20505495 -430.875 405.625 C-422.44998786 398.10631493 -420.28305481 389.17541579 -417.89453125 378.5390625 C-417 375 -417 375 -415.82421875 372.7734375 C-414.86310591 371.0430516 -414.86310591 371.0430516 -415.03125 369.12890625 C-416.52695222 365.84197999 -419.01282458 363.49434208 -421.5 360.9375 C-425.31005582 356.92481158 -428.98620096 352.89429805 -432.4375 348.5625 C-436.59476212 343.35635223 -441.09988319 338.53715536 -445.74780273 333.76977539 C-446.28477783 333.20766357 -446.82175293 332.64555176 -447.375 332.06640625 C-447.85710937 331.57084229 -448.33921875 331.07527832 -448.8359375 330.56469727 C-450.18775741 328.74762223 -450.58951231 327.20965286 -451 325 C-435.98056971 311.91949424 -419.73940354 301.35105526 -402.49121094 291.43945312 C-400.29691975 290.17156398 -398.118065 288.88243859 -395.9453125 287.578125 C-390.42021297 284.29177875 -385.11692875 281.60606337 -379 279.5625 C-372.33919543 277.10089831 -370.16304869 274.17507649 -367 268 C-366.23412929 266.66305836 -365.46141086 265.33002685 -364.68359375 264 C-363.0588277 261.19991865 -361.43736394 258.3987866 -359.85546875 255.57421875 C-359.35503052 254.68609497 -359.35503052 254.68609497 -358.84448242 253.7800293 C-357.53954989 251.0294473 -356.6737367 249.02532958 -357.62556458 246.03407288 C-357.97705063 245.34744064 -358.32853668 244.66080841 -358.69067383 243.95336914 C-359.08470901 243.16897964 -359.4787442 242.38459015 -359.88471985 241.57643127 C-360.32108261 240.73781052 -360.75744537 239.89918976 -361.20703125 239.03515625 C-361.64762375 238.16483261 -362.08821625 237.29450897 -362.54216003 236.39781189 C-363.95442087 233.61351398 -365.38287207 230.83791446 -366.8125 228.0625 C-368.22798187 225.28902142 -369.64011192 222.51386767 -371.05070496 219.73789978 C-371.92969067 218.01093823 -372.81213242 216.28573027 -373.69844055 214.56251526 C-379.31949945 203.59124032 -379.31949945 203.59124032 -379 198 C-372.30761311 194.40896313 -365.4497291 191.89381856 -358.25 189.5 C-357.05568359 189.10200195 -355.86136719 188.70400391 -354.63085938 188.29394531 C-346.05497384 185.5080457 -337.56764383 183.47216129 -328.703125 181.89453125 C-323.00386139 180.8659589 -317.46105169 179.3306929 -311.88549805 177.77978516 C-307.40112368 176.55553354 -302.98561651 175.62835378 -298.3894043 174.94067383 C-290.56310518 173.75113524 -286.19349573 171.94067318 -281 166 C-279.81899247 164.80604283 -278.63152816 163.61843575 -277.4375 162.4375 C-276.59832031 161.56931641 -276.59832031 161.56931641 -275.7421875 160.68359375 C-273.43905793 158.45792369 -270.90300628 156.5911253 -268.28515625 154.75 C-265.9366106 151.5519804 -266.82085001 147.34611325 -267.32243347 143.57727051 C-267.77936058 140.75888245 -268.27582849 137.95001212 -268.78515625 135.140625 C-269.1543423 133.03516422 -269.52348156 130.92969522 -269.89257812 128.82421875 C-270.47874888 125.52321678 -271.06738688 122.22266794 -271.6574707 118.92236328 C-272.2269651 115.7253265 -272.78766566 112.52683786 -273.34765625 109.328125 C-273.52780777 108.33750061 -273.70795929 107.34687622 -273.89356995 106.32623291 C-274.13393227 104.94900055 -274.13393227 104.94900055 -274.37915039 103.54394531 C-274.52349014 102.73677063 -274.6678299 101.92959595 -274.81654358 101.09796143 C-275 99 -275 99 -274 96 C-265.70894137 95.18832174 -257.50435163 94.84038352 -249.17578125 94.83203125 C-247.39726021 94.82703865 -247.39726021 94.82703865 -245.58280945 94.82194519 C-243.08947127 94.81691506 -240.59612645 94.81453564 -238.1027832 94.81469727 C-234.33989052 94.81251588 -230.57729395 94.79433151 -226.81445312 94.77539062 C-214.02527057 94.7461538 -201.65821691 95.15083277 -189 97 C-180.49359924 97.82426637 -174.65945823 95.70529748 -167 92 C-166.37883301 91.70577148 -165.75766602 91.41154297 -165.11767578 91.10839844 C-157.48252704 88.19620785 -157.48252704 88.19620785 -152 83 C-151.77970284 81.5593479 -151.60679884 80.11128464 -151.45922852 78.66137695 C-151.31886925 77.31406242 -151.31886925 77.31406242 -151.17567444 75.93952942 C-151.07774094 74.96561752 -150.97980743 73.99170563 -150.87890625 72.98828125 C-150.66352912 70.93032622 -150.44803044 68.87238392 -150.23242188 66.81445312 C-149.89681985 63.56703166 -149.56320572 60.31942417 -149.23217773 57.0715332 C-148.91145289 53.93903296 -148.58306836 50.80740453 -148.25390625 47.67578125 C-148.15799698 46.71199051 -148.06208771 45.74819977 -147.96327209 44.75520325 C-147.41981675 39.62000435 -146.5986428 34.91365627 -145 30 C-118.0683064 30.85361945 -91.38997804 41.07002868 -66.6953125 51.15234375 C-56.05529937 55.40117975 -47.39762359 55.31624232 -36.1875 54.125 C-35.35541016 54.04636719 -34.52332031 53.96773437 -33.66601562 53.88671875 C-32.86228516 53.80292969 -32.05855469 53.71914063 -31.23046875 53.6328125 C-30.51270264 53.55949707 -29.79493652 53.48618164 -29.05541992 53.41064453 C-26.62628553 52.92533701 -25.04781037 52.41910131 -23 51 C-21.61166053 48.49949892 -21.61166053 48.49949892 -20.58984375 45.453125 C-19.94861572 43.7347644 -19.94861572 43.7347644 -19.29443359 41.98168945 C-18.84664551 40.75023193 -18.39885742 39.51877441 -17.9375 38.25 C-5.79188144 5.79188144 -5.79188144 5.79188144 0 0 Z " fill="#D1D0C9" transform="translate(484,0)"/>
<path d="M0 0 C1.19459145 -0.00709439 2.38918289 -0.01418877 3.61997408 -0.02149814 C6.90959498 -0.03597772 10.19826787 -0.02825366 13.48784554 -0.01077521 C17.04551433 0.00265812 20.60307756 -0.01285947 24.16073608 -0.02459717 C31.11949832 -0.04293336 38.07797893 -0.03448876 45.03673226 -0.01650894 C50.69385482 -0.00245893 56.35090115 0.00140471 62.00803947 -0.00195122 C63.21771759 -0.00266738 63.21771759 -0.00266738 64.45183365 -0.00339801 C66.09033074 -0.00442438 67.72882782 -0.00547974 69.36732488 -0.00656378 C83.84108509 -0.01512256 98.31470969 0.00151801 112.78843689 0.03126526 C126.82137242 0.06010602 140.85411266 0.06718261 154.8870697 0.05177307 C170.18302711 0.03499954 185.4788919 0.03098802 200.77485174 0.04848343 C202.40687175 0.05032775 204.03889176 0.05216247 205.67091179 0.0539875 C206.87526766 0.05535564 206.87526766 0.05535564 208.10395395 0.05675141 C213.75246536 0.06234924 219.40093144 0.05905672 225.04944038 0.05244255 C231.93562591 0.04469891 238.82161944 0.05149907 245.70776636 0.07661759 C249.2188336 0.08908827 252.7296023 0.09528898 256.24068069 0.08407593 C260.05147355 0.075381 263.86139877 0.09134034 267.67211914 0.11352539 C268.77523927 0.10528462 269.8783594 0.09704386 271.01490742 0.08855337 C277.79645247 0.1613691 282.82586409 1.32641744 288.77256775 4.62818909 C288.77256775 5.28818909 288.77256775 5.94818909 288.77256775 6.62818909 C289.76256775 6.62818909 290.75256775 6.62818909 291.77256775 6.62818909 C291.77256775 7.28818909 291.77256775 7.94818909 291.77256775 8.62818909 C293.42256775 9.28818909 295.07256775 9.94818909 296.77256775 10.62818909 C296.77256775 11.28818909 296.77256775 11.94818909 296.77256775 12.62818909 C297.43256775 12.62818909 298.09256775 12.62818909 298.77256775 12.62818909 C301.24993715 15.41685098 302.5836907 18.28745041 303.89756775 21.75318909 C305.22255317 25.24034377 305.22255317 25.24034377 306.77256775 28.62818909 C306.874406 30.86191037 306.90908901 33.09876458 306.91516876 35.33479786 C306.91841978 36.03557425 306.9216708 36.73635063 306.92502034 37.45836267 C306.93476244 39.83031376 306.93731773 42.20221931 306.93992615 44.57418823 C306.94536983 46.28256764 306.95123299 47.99094575 306.95748186 49.6993224 C306.97337249 54.41275598 306.98286117 59.12618432 306.9912467 63.83963645 C306.9992384 67.8780612 307.01093165 71.91647177 307.02266151 75.95488713 C307.06462014 90.42539648 307.09178389 104.89592248 307.11631775 119.36647034 C307.11829265 120.50839874 307.12026755 121.65032715 307.12230229 122.82685944 C307.16146757 145.49719264 307.19517988 168.16753128 307.21738434 190.83788776 C307.22235377 195.82503581 307.22739806 200.81218378 307.23252869 205.79933167 C307.23443469 207.65866372 307.23443469 207.65866372 307.23637921 209.55555805 C307.25772876 229.62529534 307.30671088 249.69486865 307.36677283 269.76452348 C307.42791779 290.36590396 307.46257597 310.96719991 307.47185755 331.56866997 C307.47776699 343.13701087 307.49550555 354.70507427 307.54324341 366.27332497 C307.58387361 376.1284078 307.60071085 385.98316786 307.58659059 395.83833072 C307.58012961 400.8649061 307.584922 405.89079426 307.62046432 410.91726303 C307.65278444 415.52517918 307.65237523 420.13192621 307.62664729 424.73987319 C307.62301348 426.40088642 307.63106702 428.06197827 307.65242881 429.72285811 C307.78632934 440.80760306 306.05361745 448.26666091 299.77256775 457.62818909 C299.08224063 458.70065 298.39191352 459.77311092 297.6806674 460.87807065 C295.69405832 463.74134367 294.1345964 465.07893139 291.14756775 466.81568909 C290.37155212 467.28361877 289.5955365 467.75154846 288.79600525 468.23365784 C280.53608427 472.04346635 272.94687838 473.06413951 263.91131592 472.99568176 C262.75614886 472.9989506 261.60098181 473.00221944 260.4108097 473.00558734 C256.56096363 473.01283877 252.7115016 472.99873858 248.86167908 472.9846344 C246.09326772 472.98376008 243.32486644 472.98740022 240.55645752 472.99082947 C233.83103209 472.9964466 227.10572125 472.98617954 220.38031534 472.97054151 C212.54348224 472.95295928 204.70667102 472.95158135 196.86982127 472.95092592 C182.88628826 472.94923999 168.90280727 472.93344989 154.91929626 472.90943909 C141.35776843 472.88616986 127.79627358 472.87201217 114.23472595 472.86842346 C113.39897826 472.86820069 112.56323056 472.86797793 111.70215718 472.86774841 C110.0184558 472.8673058 108.33475443 472.86686378 106.65105305 472.86642234 C105.82044815 472.86620277 104.98984324 472.86598321 104.13406849 472.86575699 C103.30552695 472.865541 102.4769854 472.86532502 101.62333654 472.86510248 C88.68639236 472.86139981 75.74945347 472.85004152 62.81251511 472.83762659 C58.12799177 472.83319617 53.44346892 472.82975591 48.75894431 472.82700446 C41.32997366 472.82256773 33.90102259 472.81477854 26.47206429 472.80023006 C23.07880263 472.79363519 19.68555816 472.78855909 16.29228973 472.78776932 C12.61245726 472.7860218 8.9326881 472.77813408 5.25286865 472.76863098 C4.18283232 472.76949746 3.11279599 472.77036395 2.01033431 472.77125669 C-9.01977146 472.72846429 -17.85778403 471.4747343 -26.22743225 463.62818909 C-26.22743225 462.96818909 -26.22743225 462.30818909 -26.22743225 461.62818909 C-27.21743225 461.29818909 -28.20743225 460.96818909 -29.22743225 460.62818909 C-29.22743225 459.96818909 -29.22743225 459.30818909 -29.22743225 458.62818909 C-29.88743225 458.62818909 -30.54743225 458.62818909 -31.22743225 458.62818909 C-39.42150823 449.11248795 -38.66312881 435.58761992 -38.6151123 423.74539185 C-38.61929167 422.05725325 -38.62477248 420.36911746 -38.63143212 418.68098682 C-38.64582623 414.06989667 -38.64166097 409.45898618 -38.6342653 404.84788644 C-38.62952098 399.8641452 -38.64205459 394.88044213 -38.65228271 389.89671326 C-38.66945088 380.14426281 -38.6703149 370.39187685 -38.66506981 360.63941521 C-38.66102345 352.71074422 -38.66247721 344.78209225 -38.66781807 336.85342216 C-38.66856649 335.72367869 -38.66931491 334.59393522 -38.67008602 333.4299571 C-38.67161754 331.13467701 -38.67315588 328.83939693 -38.67470098 326.54411685 C-38.68841867 305.03530613 -38.68299331 283.52653182 -38.67151577 262.01772194 C-38.66158256 242.35282425 -38.67452692 222.68802064 -38.69844996 203.02313746 C-38.72284847 182.81467323 -38.73244708 162.60625282 -38.72579724 142.39777416 C-38.7223069 131.05883131 -38.72452495 119.71996082 -38.74204826 108.38102913 C-38.75677954 98.72934552 -38.75739343 89.07778523 -38.73997735 79.42610402 C-38.73147298 74.50496033 -38.72930417 69.58403686 -38.74462891 64.66290474 C-38.75850242 60.15184509 -38.7536787 55.64119378 -38.73438967 51.13015758 C-38.73063755 49.50445572 -38.73352877 47.87872094 -38.74400132 46.25304849 C-38.80622269 35.84870647 -37.97701915 26.12736289 -33.22743225 16.62818909 C-32.56743225 16.62818909 -31.90743225 16.62818909 -31.22743225 16.62818909 C-31.13333069 16.03908752 -31.03922913 15.44998596 -30.942276 14.84303284 C-30.06109661 12.11282128 -28.94401153 11.0673819 -26.78993225 9.19068909 C-26.17247131 8.63510315 -25.55501038 8.07951721 -24.9188385 7.50709534 C-16.69608383 1.7666817 -9.99222557 -0.10742702 0 0 Z " fill="#FCFDFC" transform="translate(362.22743225097656,275.37181091308594)"/>
<path d="M0 0 C0.90417294 -0.00367669 1.80834588 -0.00735338 2.73991799 -0.01114148 C5.78220443 -0.02219097 8.82445674 -0.0260243 11.86676025 -0.02983093 C14.04301055 -0.03609459 16.21925977 -0.0427413 18.39550781 -0.04974365 C24.3170952 -0.06716151 30.23867452 -0.07770741 36.16028118 -0.08594918 C39.85846535 -0.09109732 43.55664701 -0.09717312 47.25482941 -0.10346031 C58.82148652 -0.12251397 70.38813725 -0.13674514 81.95480704 -0.14507228 C95.3143268 -0.1548485 108.67366335 -0.18117743 122.03312659 -0.22157317 C132.35423161 -0.25171269 142.67528913 -0.26653908 152.99643731 -0.26985329 C159.16318363 -0.27220609 165.32975315 -0.2811967 171.49645233 -0.30631447 C177.29784385 -0.3295624 183.09894175 -0.33384148 188.90036774 -0.32355309 C191.02924068 -0.32305683 193.15812791 -0.32940352 195.28695679 -0.34310913 C198.19458709 -0.36078084 201.10115828 -0.35374485 204.00878906 -0.34057617 C204.85014333 -0.35154542 205.69149761 -0.36251466 206.55834746 -0.37381631 C213.07320263 -0.30263832 216.86130573 1.57009399 222.07086182 5.52217102 C225.00939322 9.54331925 225.51167476 14.17872021 225.54888916 19.02558899 C225.56164886 20.16051788 225.57440857 21.29544678 225.58755493 22.46476746 C225.58978058 23.67738251 225.59200623 24.88999756 225.59429932 26.13935852 C225.60428452 28.02921982 225.60428452 28.02921982 225.61447144 29.95726013 C225.62458265 32.6185269 225.63015595 35.27938487 225.62896729 37.94062805 C225.62876422 41.33216799 225.6560674 44.72286879 225.6905117 48.11421013 C225.71824199 51.37256049 225.71693275 54.63090628 225.71929932 57.88935852 C225.73367035 59.09792511 225.74804138 60.3064917 225.7628479 61.55168152 C225.72502529 68.56656814 225.0716131 73.20059565 221.25836182 79.14717102 C215.9704326 84.17715247 211.48315535 84.29585411 204.47203064 84.29434204 C203.10858756 84.29985707 203.10858756 84.29985707 201.71760017 84.30548352 C198.65916024 84.31653318 195.60075428 84.32036635 192.54229736 84.32417297 C190.35457247 84.33043657 188.16684863 84.33708328 185.97912598 84.34408569 C180.02661496 84.36150307 174.07411198 84.37204913 168.12158179 84.38029122 C164.40464434 84.38543903 160.68770939 84.39151481 156.9707737 84.39780235 C145.34698748 84.41685511 133.72320763 84.43108698 122.09940881 84.43941432 C120.761524 84.44038285 119.42363919 84.4413571 118.08575439 84.44233704 C117.0902993 84.44306265 117.0902993 84.44306265 116.07473401 84.44380292 C105.32185812 84.45210502 94.56909341 84.47744592 83.81626608 84.50991771 C72.77591757 84.54298597 61.73562847 84.56066677 50.69523078 84.56419533 C44.4966587 84.56654914 38.29826241 84.57555294 32.09973717 84.60065651 C26.26962201 84.62388666 20.43979904 84.62819073 14.60964966 84.61789513 C12.46906883 84.61739845 10.32847387 84.62375744 8.18793678 84.63745117 C5.26682008 84.65509403 2.34676063 84.64810121 -0.57435608 84.63491821 C-1.42251414 84.64588746 -2.2706722 84.6568567 -3.14453202 84.66815835 C-9.29610122 84.6010769 -12.96868715 82.93560499 -17.40045166 78.47909546 C-21.64536891 72.20813006 -21.43398431 66.0863934 -21.33538818 58.70576477 C-21.33542847 57.42411942 -21.33546875 56.14247406 -21.33551025 54.82199097 C-21.33386502 52.12120409 -21.3153154 49.42125533 -21.28363037 46.72065735 C-21.24391399 43.2753118 -21.23959453 39.83105876 -21.2470932 36.38552761 C-21.25091635 33.07547584 -21.23006569 29.76576278 -21.21038818 26.45576477 C-21.21018677 25.22643723 -21.20998535 23.99710968 -21.20977783 22.73052979 C-21.11382513 15.76633734 -20.97629239 9.9040871 -16.24163818 4.40498352 C-10.75103909 0.25843733 -6.68580817 -0.00144966 0 0 Z " fill="#1F3445" transform="translate(394.74163818359375,329.8528289794922)"/>
<path d="M0 0 C0.82355988 -0.00807175 1.64711975 -0.01614349 2.49563599 -0.02445984 C4.23551346 -0.03826643 5.97541763 -0.04900384 7.71533203 -0.05688477 C9.49015263 -0.06841801 11.26493818 -0.08889112 13.03955078 -0.1184082 C15.6099392 -0.16114455 18.17930014 -0.1772601 20.75 -0.1875 C21.53768768 -0.20500809 22.32537537 -0.22251617 23.13693237 -0.24055481 C28.39830543 -0.21996076 31.31352532 0.79384828 35.5078125 4.23828125 C42.03518489 11.49091724 41.88044366 17.75263479 41.87841797 27.14477539 C41.8827654 29.40133618 41.91902878 31.6558977 41.95703125 33.91210938 C42.03225333 42.80964863 41.58049662 49.7803648 36.13037109 57.08422852 C31.0770593 62.1148436 24.9387057 61.93607888 18.21923828 61.98162842 C16.51551759 61.96770457 14.81185218 61.9438622 13.10839844 61.91064453 C10.51371011 61.86338866 7.9231358 61.86954758 5.328125 61.8828125 C3.65882999 61.87165743 1.98955207 61.85743667 0.3203125 61.83984375 C-0.82691284 61.84257797 -0.82691284 61.84257797 -1.99731445 61.84536743 C-7.5052848 61.70238076 -11.91676147 60.381557 -16.4921875 57.23828125 C-20.98815981 51.58949553 -21.66359692 47.07857156 -21.73046875 40.0625 C-21.7385405 39.25972122 -21.74661224 38.45694244 -21.75492859 37.62983704 C-21.768752 35.9310623 -21.77948195 34.23226 -21.78735352 32.53344727 C-21.80455585 29.94558617 -21.84845442 27.35900666 -21.89257812 24.77148438 C-21.90270672 23.11849895 -21.91122231 21.46550269 -21.91796875 19.8125 C-21.93547684 19.04354904 -21.95298492 18.27459808 -21.97102356 17.48234558 C-21.95016026 12.27194174 -20.88728223 9.39700957 -17.4921875 5.23828125 C-11.94706108 0.10903931 -7.32397726 0.06833302 0 0 Z " fill="#1E3347" transform="translate(396.4921875,628.76171875)"/>
<path d="M0 0 C0.79237564 -0.00761353 1.58475128 -0.01522705 2.40113831 -0.02307129 C4.06760527 -0.03381799 5.73413928 -0.03674762 7.40063477 -0.03222656 C9.93165727 -0.03125375 12.45964812 -0.07294218 14.99023438 -0.1171875 C29.54461992 -0.22945848 29.54461992 -0.22945848 35.01586914 3.80664062 C39.92905742 9.29457923 41.11474281 13.16507459 41.0703125 20.3046875 C41.07961037 21.56196152 41.07961037 21.56196152 41.08909607 22.84463501 C41.09617389 24.61125533 41.09305589 26.37794264 41.08032227 28.14453125 C41.06648027 30.82939205 41.10052486 33.51074683 41.13867188 36.1953125 C41.13962348 37.91927168 41.13776205 39.64323517 41.1328125 41.3671875 C41.14607071 42.16015228 41.15932892 42.95311707 41.17298889 43.77011108 C41.07536385 49.69656698 39.55540107 54.05186256 35.50390625 58.46875 C30.29977553 61.61840344 25.62348929 61.91338082 19.71875 61.8671875 C18.89943497 61.87005768 18.08011993 61.87292786 17.23597717 61.87588501 C15.51400048 61.87791553 13.79200019 61.87245688 12.07006836 61.85986328 C9.44527359 61.84377371 6.82201352 61.85975647 4.19726562 61.87890625 C2.51692371 61.87692404 0.83658275 61.87308083 -0.84375 61.8671875 C-1.62202652 61.87326019 -2.40030304 61.87933289 -3.2021637 61.8855896 C-8.69155755 61.81522572 -12.94103453 60.79925532 -17.140625 56.96875 C-22.74738421 49.76809603 -21.82128554 42.17140128 -21.90112305 33.4465332 C-21.92266355 31.67843039 -21.95671991 29.91043308 -22.00366211 28.14282227 C-22.46807299 10.47702917 -22.46807299 10.47702917 -17.47680664 4.83276367 C-11.76133818 0.89681861 -6.77146725 0.00182312 0 0 Z " fill="#1D3347" transform="translate(396.49609375,542.53125)"/>
<path d="M0 0 C0.83676773 -0.00478363 1.67353546 -0.00956726 2.53565979 -0.01449585 C4.29633476 -0.01788147 6.05707374 -0.00877307 7.81762695 0.01220703 C10.49379564 0.03896142 13.16575833 0.01243466 15.84179688 -0.01953125 C17.56120707 -0.01622625 19.28061466 -0.00981815 21 0 C21.78982773 -0.01012115 22.57965546 -0.02024231 23.39341736 -0.03067017 C29.35065786 0.09326001 33.56809393 1.69964842 38.06640625 5.6640625 C42.15811972 10.40688378 42.65293929 15.15733452 42.5625 21.23046875 C42.56395523 22.02758774 42.56541046 22.82470673 42.56690979 23.64598083 C42.56525907 25.32090941 42.55379103 26.99585447 42.53295898 28.6706543 C42.503945 31.22315305 42.51237846 33.7735781 42.52539062 36.32617188 C42.51915366 37.96094751 42.51076304 39.59571665 42.5 41.23046875 C42.50293564 41.98687149 42.50587128 42.74327423 42.50889587 43.52259827 C42.4120375 49.00322862 41.28861111 53.16926718 37.6015625 57.30859375 C31.98026679 61.76686276 27.57616874 61.83701525 20.57421875 61.90234375 C19.75065887 61.9104155 18.927099 61.91848724 18.07858276 61.92680359 C16.33870529 61.94061018 14.59880112 61.95134759 12.85888672 61.95922852 C11.08406612 61.97076176 9.30928057 61.99123487 7.53466797 62.02075195 C4.96427955 62.0634883 2.39491861 62.07960385 -0.17578125 62.08984375 C-0.96346893 62.10735184 -1.75115662 62.12485992 -2.56271362 62.14289856 C-7.8233166 62.12230752 -10.74308974 61.11281815 -14.93359375 57.6640625 C-19.59542319 52.3722561 -20.10993688 49.05696561 -20.171875 42.1484375 C-20.17994675 41.29985168 -20.18801849 40.45126587 -20.19633484 39.57696533 C-20.21017816 37.77805628 -20.22089921 35.97912093 -20.22875977 34.18017578 C-20.24593989 31.43861522 -20.28981859 28.69827094 -20.33398438 25.95703125 C-20.34411436 24.20834219 -20.3526295 22.45964289 -20.359375 20.7109375 C-20.37688309 19.89510193 -20.39439117 19.07926636 -20.41242981 18.2387085 C-20.39223711 12.89713067 -19.58156183 9.82071433 -15.93359375 5.6640625 C-10.97671772 0.88939654 -6.75028589 -0.08627962 0 0 Z " fill="#1D3246" transform="translate(576.93359375,542.3359375)"/>
<path d="M0 0 C0.77442444 -0.00807175 1.54884888 -0.01614349 2.34674072 -0.02445984 C3.98406764 -0.03826587 5.62142291 -0.04900353 7.25878906 -0.05688477 C8.92293814 -0.06839183 10.58705068 -0.08882367 12.25097656 -0.1184082 C14.66757033 -0.16133896 17.08307098 -0.17728846 19.5 -0.1875 C20.23361755 -0.20500809 20.96723511 -0.22251617 21.7230835 -0.24055481 C27.22073561 -0.21781298 31.417074 1.19816318 36.015625 4.23828125 C40.74516155 9.33162831 41.18294913 12.77863219 41.21875 19.53515625 C41.22445007 20.36154602 41.23015015 21.18793579 41.23602295 22.03936768 C41.24547851 23.79120604 41.25200913 25.54306223 41.25585938 27.29492188 C41.26553646 29.96386207 41.29654206 32.63202281 41.328125 35.30078125 C41.33465804 37.00390168 41.33990733 38.70702762 41.34375 40.41015625 C41.3560968 41.20411804 41.3684436 41.99807983 41.38116455 42.81610107 C41.3574208 48.78056437 40.05867349 52.86570881 36.078125 57.48828125 C31.42875521 61.43320107 27.30158877 61.55784715 21.33984375 61.57421875 C20.4964595 61.58087555 19.65307526 61.58753235 18.78413391 61.59439087 C17.00137508 61.6045035 15.2185785 61.60920832 13.43579102 61.60888672 C10.72282669 61.61324957 8.01150367 61.64955359 5.29882812 61.6875 C3.56250553 61.69337073 1.82617525 61.69733841 0.08984375 61.69921875 C-0.71455643 61.71358978 -1.5189566 61.72796082 -2.34773254 61.74276733 C-8.02590163 61.69723616 -11.31775022 60.51353379 -15.984375 57.23828125 C-20.41728208 51.52216423 -21.15548251 47.11024782 -21.22265625 40.0625 C-21.230728 39.25972122 -21.23879974 38.45694244 -21.24711609 37.62983704 C-21.2609395 35.9310623 -21.27166945 34.23226 -21.27954102 32.53344727 C-21.29674335 29.94558617 -21.34064192 27.35900666 -21.38476562 24.77148438 C-21.39489422 23.11849895 -21.40340981 21.46550269 -21.41015625 19.8125 C-21.42766434 19.04354904 -21.44517242 18.27459808 -21.46321106 17.48234558 C-21.44234776 12.27194174 -20.37946973 9.39700957 -16.984375 5.23828125 C-11.55279645 0.21407109 -7.1867225 0.07157449 0 0 Z " fill="#1D3347" transform="translate(395.984375,456.76171875)"/>
<path d="M0 0 C0.81315674 -0.00478363 1.62631348 -0.00956726 2.46411133 -0.01449585 C4.17173209 -0.01787618 5.87941924 -0.00880531 7.58691406 0.01220703 C10.18182404 0.03900389 12.77241 0.01239994 15.3671875 -0.01953125 C17.03646776 -0.01622682 18.70574535 -0.00981987 20.375 0 C21.52222534 -0.01518173 21.52222534 -0.01518173 22.69262695 -0.03067017 C28.60741196 0.09627222 32.653825 1.86017584 37.1875 5.6640625 C41.20935064 10.21252719 41.78226498 14.14308338 41.71875 20.02734375 C41.7225769 20.81876266 41.72640381 21.61018158 41.73034668 22.42558289 C41.73305793 24.09387489 41.72575192 25.76220998 41.70898438 27.43041992 C41.68764687 29.95915672 41.70876596 32.48502511 41.734375 35.01367188 C41.7756203 52.38460353 41.7756203 52.38460353 37.1875 57.6640625 C30.58426836 63.33386337 20.68024444 62.2365124 12.51220703 62.13061523 C10.06083883 62.1015428 7.61162478 62.11005669 5.16015625 62.12304688 C3.58332295 62.11681097 2.00649638 62.10842118 0.4296875 62.09765625 C-0.29340607 62.10059189 -1.01649963 62.10352753 -1.76150513 62.10655212 C-7.3658445 62.0037026 -12.25890895 60.91419991 -16.5546875 57.12890625 C-20.49424223 51.8172997 -20.99238125 48.66232605 -21.05078125 42.1484375 C-21.058853 41.29985168 -21.06692474 40.45126587 -21.07524109 39.57696533 C-21.08908441 37.77805628 -21.09980546 35.97912093 -21.10766602 34.18017578 C-21.12484614 31.43861522 -21.16872484 28.69827094 -21.21289062 25.95703125 C-21.22302061 24.20834219 -21.23153575 22.45964289 -21.23828125 20.7109375 C-21.25578934 19.89510193 -21.27329742 19.07926636 -21.29133606 18.2387085 C-21.27117843 12.90640754 -20.51225099 9.77319271 -16.8125 5.6640625 C-11.47174584 1.19229442 -6.86323581 -0.09082419 0 0 Z " fill="#1E3347" transform="translate(577.8125,456.3359375)"/>
<path d="M0 0 C0.79379059 -0.00524185 1.58758118 -0.0104837 2.40542603 -0.0158844 C4.07788936 -0.0222818 5.75039783 -0.02099726 7.42285156 -0.01245117 C9.96241661 -0.00395358 12.4997199 -0.03271134 15.0390625 -0.06445312 C16.67187433 -0.06606588 18.3046901 -0.06548618 19.9375 -0.0625 C20.68671722 -0.07373398 21.43593445 -0.08496796 22.20785522 -0.09654236 C28.95788724 -0.00869282 34.29482787 2.06771208 39.0390625 6.93359375 C41.94377532 11.58113427 41.77419586 16.12168069 41.8046875 21.48828125 C41.81038757 22.26744904 41.81608765 23.04661682 41.82196045 23.84939575 C41.83138896 25.49512381 41.83793588 27.14087056 41.84179688 28.78662109 C41.85150204 31.29298088 41.88254457 33.79851997 41.9140625 36.3046875 C41.92059342 37.90754724 41.92584354 39.51041281 41.9296875 41.11328125 C41.9420343 41.85722137 41.9543811 42.6011615 41.96710205 43.36764526 C41.94388571 48.8399245 40.83422507 52.98580484 37.1015625 57.078125 C31.74659839 61.24774549 27.80163754 61.60154952 21.20703125 61.63671875 C20.38205643 61.64241882 19.5570816 61.6481189 18.70710754 61.6539917 C16.96124552 61.66343498 15.21536573 61.66997301 13.46948242 61.67382812 C10.80941332 61.68351961 8.15012172 61.71454287 5.49023438 61.74609375 C3.79167124 61.75262564 2.0931026 61.75787538 0.39453125 61.76171875 C-0.79170586 61.78023895 -0.79170586 61.78023895 -2.00190735 61.7991333 C-7.54875598 61.77695707 -11.95368615 60.88415211 -16.04296875 56.78515625 C-16.42839844 56.21539063 -16.81382812 55.645625 -17.2109375 55.05859375 C-17.60925781 54.49398437 -18.00757813 53.929375 -18.41796875 53.34765625 C-21.6419465 47.05383515 -20.73153884 38.93821641 -20.8034668 32.02441406 C-20.82501773 30.47080212 -20.85908732 28.91731066 -20.90600586 27.36425781 C-21.36841699 11.87595344 -21.36841699 11.87595344 -16.28149414 5.08886719 C-11.29334627 0.70410865 -6.44226087 -0.02510688 0 0 Z " fill="#1E3346" transform="translate(486.3984375,542.56640625)"/>
<path d="M0 0 C0.82164642 -0.00807175 1.64329285 -0.01614349 2.48983765 -0.02445984 C4.23327524 -0.0383055 5.97673999 -0.0490255 7.72021484 -0.05688477 C10.36739842 -0.07401786 13.01330674 -0.11788816 15.66015625 -0.16210938 C17.35676168 -0.17224366 19.0533777 -0.18075746 20.75 -0.1875 C21.92545883 -0.21376213 21.92545883 -0.21376213 23.12466431 -0.24055481 C28.73076883 -0.21879495 33.1275929 1.01527907 37.7734375 4.23828125 C42.14028055 9.72482765 42.94221911 14.08509942 43.01171875 20.90625 C43.0197905 21.65989334 43.02786224 22.41353668 43.03617859 23.1900177 C43.0500025 24.78624179 43.06073223 26.38249523 43.06860352 27.97875977 C43.08009672 29.6012445 43.10050644 31.22369222 43.13012695 32.84594727 C43.43524087 49.56243992 43.43524087 49.56243992 38.7734375 56.23828125 C33.85285489 61.15886386 27.22861785 61.56072692 20.59375 61.609375 C19.82215546 61.61840347 19.05056091 61.62743195 18.25558472 61.63673401 C16.6302271 61.65117885 15.0048121 61.66010883 13.37939453 61.66381836 C10.91207575 61.67571549 8.4472609 61.72495253 5.98046875 61.77539062 C-8.20352572 61.9274404 -8.20352572 61.9274404 -13.72314453 58.00024414 C-18.59979238 52.28495223 -19.83418075 47.77455122 -19.7578125 40.453125 C-19.7616394 39.63380997 -19.76546631 38.81449493 -19.76940918 37.97035217 C-19.77211655 36.24836997 -19.76483805 34.52634582 -19.74804688 32.80444336 C-19.72659076 30.17923883 -19.74790082 27.55676182 -19.7734375 24.93164062 C-19.77079455 23.25129609 -19.76567025 21.57095324 -19.7578125 19.890625 C-19.76590942 19.11234848 -19.77400635 18.33407196 -19.78234863 17.5322113 C-19.69333059 12.32369574 -18.62523661 9.39122115 -15.2265625 5.23828125 C-10.01923074 0.65086994 -6.79735328 0.06309696 0 0 Z " fill="#1E3447" transform="translate(576.2265625,628.76171875)"/>
<path d="M0 0 C0.77396622 -0.00287018 1.54793243 -0.00574036 2.34535217 -0.00869751 C3.97495255 -0.01073011 5.60457778 -0.00525671 7.23413086 0.00732422 C9.71198811 0.02336842 12.18820908 0.00746046 14.66601562 -0.01171875 C16.25651398 -0.00973575 17.84701132 -0.00589089 19.4375 0 C20.5362571 -0.00910904 20.5362571 -0.00910904 21.6572113 -0.0184021 C28.03968652 0.06771557 32.67098073 1.56615205 37.59765625 5.8359375 C41.72226541 10.66762252 42.09334991 14.41064484 42.0859375 20.671875 C42.09022263 21.47323883 42.09450775 22.27460266 42.09892273 23.10025024 C42.10465678 24.79306088 42.1051731 26.48589616 42.10083008 28.17871094 C42.09767563 30.7575935 42.12112052 33.33532213 42.14648438 35.9140625 C42.14875815 37.56249856 42.1494605 39.21093769 42.1484375 40.859375 C42.15764725 41.6251889 42.16685699 42.39100281 42.17634583 43.18002319 C42.12630014 49.02440426 40.702455 53.0183425 36.97265625 57.6484375 C32.03867407 61.59562324 26.43987958 61.71646068 20.3515625 61.734375 C19.15731911 61.7443602 19.15731911 61.7443602 17.93894958 61.75454712 C16.26230159 61.7646299 14.58561382 61.7693655 12.90893555 61.76904297 C10.35853419 61.77341884 7.80986175 61.80978962 5.25976562 61.84765625 C3.62370378 61.85352505 1.98763379 61.85749402 0.3515625 61.859375 C-0.40281601 61.87374603 -1.15719452 61.88811707 -1.93443298 61.90292358 C-7.45771688 61.85577769 -10.66264659 60.55509402 -15.21484375 57.3984375 C-21.24183306 49.78539838 -20.52692166 41.89597236 -20.61987305 32.63745117 C-20.64140332 31.0285082 -20.6754479 29.4196808 -20.72241211 27.8112793 C-21.18566964 11.76872061 -21.18566964 11.76872061 -16.09790039 5.03393555 C-11.13751829 0.7256768 -6.3833222 -0.0527739 0 0 Z " fill="#1E3347" transform="translate(486.21484375,456.6015625)"/>
<path d="M0 0 C0.79237564 -0.0038269 1.58475128 -0.00765381 2.40113831 -0.01159668 C4.06765014 -0.01430394 5.73420533 -0.00702622 7.40063477 0.00976562 C9.93147973 0.03116606 12.4594774 0.00994068 14.99023438 -0.015625 C16.61849577 -0.01298095 18.24675541 -0.00785438 19.875 0 C20.99412025 -0.01214539 20.99412025 -0.01214539 22.135849 -0.02453613 C28.38628349 0.08529221 33.49367655 1.66393089 38.09262085 6.04454041 C41.77451665 10.57354987 42.23010051 14.62030955 42.1328125 20.31640625 C42.13522446 21.13572128 42.13763641 21.95503632 42.14012146 22.79917908 C42.13914719 24.52119821 42.12585444 26.24325032 42.10083008 27.96508789 C42.06644955 30.59044356 42.08020889 33.21244063 42.09960938 35.83789062 C42.09271165 37.51824339 42.08303992 39.19858753 42.0703125 40.87890625 C42.07527237 41.65718277 42.08023224 42.43545929 42.08534241 43.23731995 C41.95708199 49.2123795 40.13833337 52.81952918 35.90625 57.17578125 C30.82033574 61.23095022 27.11582191 61.69751645 20.80078125 61.734375 C20.04476624 61.74007507 19.28875122 61.74577515 18.50982666 61.75164795 C16.90939733 61.76108965 15.30894863 61.76762864 13.70849609 61.77148438 C11.27666625 61.78115945 8.84569297 61.81217679 6.4140625 61.84375 C4.85547374 61.8502837 3.29687897 61.85553273 1.73828125 61.859375 C1.01823914 61.8717218 0.29819702 61.8840686 -0.44366455 61.89678955 C-6.25663429 61.87152535 -11.01253525 60.70807418 -15.45703125 56.8125 C-15.92367188 56.2246875 -16.3903125 55.636875 -16.87109375 55.03125 C-17.59425781 54.14953125 -17.59425781 54.14953125 -18.33203125 53.25 C-22.02756549 47.79350649 -20.8001471 39.72946233 -20.84619141 33.36352539 C-20.8627059 31.69248483 -20.8899365 30.0215136 -20.92822266 28.35083008 C-21.30758903 11.6900488 -21.30758903 11.6900488 -17.26025391 6.02807617 C-11.63486422 1.25513621 -7.19645187 -0.07788903 0 0 Z " fill="#1F3549" transform="translate(486.49609375,628.46875)"/>
<path d="M0 0 C0.66 0 1.32 0 2 0 C2.33 4.95 2.66 9.9 3 15 C3.33 15 3.66 15 4 15 C4.33 19.29 4.66 23.58 5 28 C4.34 28 3.68 28 3 28 C3.33 31.96 3.66 35.92 4 40 C7.05847848 40.54372951 9.88772805 41 13 41 C12.01 43.475 12.01 43.475 11 46 C7.07668566 45.77581061 6.03871912 45.04047908 3.25 42.125 C-0.19530781 37.33985027 -0.13563906 33.51311116 -0.09765625 27.83203125 C-0.0962413 27.03721848 -0.09482635 26.2424057 -0.09336853 25.42350769 C-0.08777378 22.88646675 -0.07522228 20.34951425 -0.0625 17.8125 C-0.05748432 16.09179815 -0.05292153 14.37109492 -0.04882812 12.65039062 C-0.03780607 8.4335597 -0.02054506 4.21679484 0 0 Z " fill="#2C3B47" transform="translate(466,641)"/>
<path d="M0 0 C5.66866814 -0.09378311 11.12109437 -0.05758849 16.7421875 0.77734375 C21.80346329 1.2764661 26.91998881 1.06969528 32 1 C31.67 1.99 31.34 2.98 31 4 C20.44 4 9.88 4 -1 4 C-0.01 3.34 0.98 2.68 2 2 C1.34 1.34 0.68 0.68 0 0 Z " fill="#202E3B" transform="translate(573,514)"/>
<path d="M0 0 C4.41875965 1.73594129 6.56344593 4.80485905 9.10498047 8.68847656 C10.37624494 11.97170953 10.24634971 15.14252929 10.1953125 18.609375 C10.1924826 19.33618469 10.18965271 20.06299438 10.18673706 20.81182861 C10.17557523 23.12472251 10.15047851 25.43722388 10.125 27.75 C10.11496501 29.32160898 10.10584006 30.89322404 10.09765625 32.46484375 C10.07564904 36.31004622 10.04114715 40.15495664 10 44 C9.67 44 9.34 44 9 44 C8.67 34.1 8.34 24.2 8 14 C7.34 14 6.68 14 6 14 C5.67 13.01 5.34 12.02 5 11 C4.03126968 9.64377755 3.03565785 8.30582947 2 7 C2.66 7 3.32 7 4 7 C4 6.34 4 5.68 4 5 C2.68 4.67 1.36 4.34 0 4 C0 2.68 0 1.36 0 0 Z " fill="#52606C" transform="translate(428,631)"/>
<path d="M0 0 C1.51815699 0.00015911 3.0363194 0.00585313 4.55444336 0.01586914 C5.35208603 0.01728409 6.1497287 0.01869904 6.97154236 0.02015686 C9.52916146 0.02577223 12.08669429 0.03832727 14.64428711 0.05102539 C16.37410356 0.05603841 18.10392137 0.06060166 19.83374023 0.06469727 C24.08312264 0.07574664 28.33244023 0.09302153 32.58178711 0.11352539 C33.07678711 1.10352539 33.07678711 1.10352539 33.58178711 2.11352539 C28.4918337 2.30564209 23.40165514 2.48438669 18.31079102 2.65063477 C16.5782404 2.709112 14.84581008 2.77127202 13.11352539 2.8371582 C10.62660623 2.93111165 8.13955822 3.0119055 5.65209961 3.09008789 C4.87496613 3.12228424 4.09783264 3.15448059 3.29714966 3.18765259 C1.39261465 3.24096669 -0.51432745 3.18643791 -2.41821289 3.11352539 C-3.07821289 2.45352539 -3.73821289 1.79352539 -4.41821289 1.11352539 C-3.41821289 0.11352539 -3.41821289 0.11352539 0 0 Z " fill="#3E4A54" transform="translate(391.418212890625,456.886474609375)"/>
<path d="M0 0 C12.51879169 -0.23302818 24.60320889 0.20150181 37 2 C37 2.33 37 2.66 37 3 C32.21284377 3.07415168 27.42602173 3.12860204 22.63842773 3.16479492 C21.00978777 3.17988243 19.38118844 3.20035506 17.75268555 3.22631836 C15.41184465 3.26270449 13.07154081 3.2797262 10.73046875 3.29296875 C9.63813179 3.31619453 9.63813179 3.31619453 8.52372742 3.33988953 C3.44615804 3.34158031 3.44615804 3.34158031 1.0168457 1.48168945 C0.51350708 0.74825317 0.51350708 0.74825317 0 0 Z " fill="#25323D" transform="translate(475,515)"/>
<path d="M0 0 C0 0.66 0 1.32 0 2 C0.66 2 1.32 2 2 2 C2 2.66 2 3.32 2 4 C2.66 4 3.32 4 4 4 C4 4.99 4 5.98 4 7 C4.66 7.33 5.32 7.66 6 8 C5.67 20.21 5.34 32.42 5 45 C4.67 45 4.34 45 4 45 C3.98598145 43.51004517 3.98598145 43.51004517 3.97167969 41.98999023 C3.93158687 38.27893428 3.86577688 34.56869064 3.79248047 30.8581543 C3.76438197 29.25702406 3.74311241 27.65575798 3.72900391 26.05444336 C3.7074183 23.74262504 3.66069442 21.43242086 3.609375 19.12109375 C3.60814636 18.41351425 3.60691772 17.70593475 3.60565186 16.97691345 C3.42602305 10.78077454 1.38686331 6.64259866 -2.75 2.0625 C-3.1625 1.711875 -3.575 1.36125 -4 1 C-2 0 -2 0 0 0 Z " fill="#C8CFD5" transform="translate(615,544)"/>
<path d="M0 0 C0.66 0.33 1.32 0.66 2 1 C2 1.66 2 2.32 2 3 C2.99 2.67 3.98 2.34 5 2 C5.33 3.32 5.66 4.64 6 6 C6.66 6 7.32 6 8 6 C8 6.66 8 7.32 8 8 C12.455 7.505 12.455 7.505 17 7 C17 7.66 17 8.32 17 9 C14.57481944 10.58569498 13.11277443 11 10.1875 11 C5.92509355 9.66277445 2.98363247 7.30418802 0 4 C-0.33 3.01 -0.66 2.02 -1 1 C-0.67 0.67 -0.34 0.34 0 0 Z " fill="#2A3843" transform="translate(559,593)"/>
<path d="M0 0 C0.495 1.98 0.495 1.98 1 4 C0.33395752 3.84152588 -0.33208496 3.68305176 -1.01831055 3.51977539 C-4.58411344 2.89817592 -8.09820688 2.77024605 -11.70703125 2.68359375 C-12.43242599 2.66281265 -13.15782074 2.64203156 -13.90519714 2.62062073 C-16.20754113 2.55557785 -18.50999282 2.49645227 -20.8125 2.4375 C-22.37956814 2.39427165 -23.94662565 2.35065602 -25.51367188 2.30664062 C-29.34233936 2.19994332 -33.1711145 2.09855031 -37 2 C-37 1.67 -37 1.34 -37 1 C-36.10168457 0.97494385 -35.20336914 0.9498877 -34.27783203 0.92407227 C-30.94925131 0.82901307 -27.62085006 0.72977579 -24.29248047 0.62768555 C-22.8511238 0.58433769 -21.40971582 0.54266248 -19.96826172 0.50268555 C-17.89795459 0.44497912 -15.82790568 0.38128629 -13.7578125 0.31640625 C-12.5114502 0.27974854 -11.26508789 0.24309082 -9.98095703 0.20532227 C-1.57708251 -0.37351954 -1.57708251 -0.37351954 0 0 Z " fill="#E3ECF1" transform="translate(519,627)"/>
<path d="M0 0 C0.99 0.66 1.98 1.32 3 2 C-0.3 2.99 -3.6 3.98 -7 5 C-7.33 4.67 -7.66 4.34 -8 4 C-10.14386657 3.84141158 -12.29266838 3.74870702 -14.44140625 3.68359375 C-15.74658203 3.64169922 -17.05175781 3.59980469 -18.39648438 3.55664062 C-19.7851533 3.51682392 -21.17382522 3.47711175 -22.5625 3.4375 C-23.95509183 3.39432011 -25.34767028 3.350706 -26.74023438 3.30664062 C-30.16004801 3.20014124 -33.57993763 3.09813077 -37 3 C-37 2.67 -37 2.34 -37 2 C-36.0212793 1.97494385 -35.04255859 1.9498877 -34.03417969 1.92407227 C-30.39619296 1.82976017 -26.75838657 1.72959797 -23.12060547 1.62768555 C-21.54740626 1.58442662 -19.97416283 1.54274526 -18.40087891 1.50268555 C-16.13690885 1.44476338 -13.87315949 1.38113286 -11.609375 1.31640625 C-10.55759064 1.29133751 -10.55759064 1.29133751 -9.48455811 1.26576233 C-6.7902632 1.18438784 -4.31587906 1.08901372 -1.71191406 0.35522461 C-1.14698242 0.23800049 -0.58205078 0.12077637 0 0 Z " fill="#D9E0E5" transform="translate(610,602)"/>
<path d="M0 0 C2 3 2 3 1.75 5.0625 C1 7 1 7 -1 9 C-3.33333333 6.66666667 -5.66666667 4.33333333 -8 2 C-4.79191085 -0.1387261 -3.72301503 -0.47730962 0 0 Z " fill="#F2F5F4" transform="translate(526,456)"/>
<path d="M0 0 C0.99 0 1.98 0 3 0 C3.33 1.65 3.66 3.3 4 5 C1.41210938 6.07421875 1.41210938 6.07421875 -1.17578125 7.1484375 C-3.26533932 8.06806692 -3.26533932 8.06806692 -6 10 C-6.66 9.34 -7.32 8.68 -8 8 C-7.34 8 -6.68 8 -6 8 C-5.67 6.68 -5.34 5.36 -5 4 C-3.35 3.67 -1.7 3.34 0 3 C0 2.01 0 1.02 0 0 Z " fill="#EEF1F4" transform="translate(384,625)"/>
<path d="M0 0 C0.66 0.33 1.32 0.66 2 1 C1.84660156 1.68449219 1.69320313 2.36898437 1.53515625 3.07421875 C0.94066589 6.32438869 0.67050324 9.51716845 0.4375 12.8125 C0.35371094 13.97394531 0.26992188 15.13539063 0.18359375 16.33203125 C0.12300781 17.21246094 0.06242187 18.09289062 0 19 C-0.33 19 -0.66 19 -1 19 C-1.41746652 16.58530156 -1.80937492 14.17089547 -2.1875 11.75 C-2.36829102 10.72712891 -2.36829102 10.72712891 -2.55273438 9.68359375 C-3.05534229 6.3436831 -3.28241623 4.48414211 -1.55078125 1.515625 C-1.03902344 1.01546875 -0.52726562 0.5153125 0 0 Z " fill="#1C2D3D" transform="translate(470,549)"/>
<path d="M0 0 C4.56958375 1.97322935 7.13463296 3.92236229 10 8 C9.67 8.66 9.34 9.32 9 10 C8.01 9.34 7.02 8.68 6 8 C6 7.34 6 6.68 6 6 C5.401875 5.896875 4.80375 5.79375 4.1875 5.6875 C1.71756736 4.91123545 0.67748765 3.92911079 -1 2 C-0.67 1.34 -0.34 0.68 0 0 Z " fill="#293640" transform="translate(426,544)"/>
<path d="M0 0 C0.99 0.33 1.98 0.66 3 1 C3.66 0.67 4.32 0.34 5 0 C4.67 1.32 4.34 2.64 4 4 C4.66 4.33 5.32 4.66 6 5 C6 5.99 6 6.98 6 8 C6.66 8 7.32 8 8 8 C8 8.66 8 9.32 8 10 C2.04654255 7.90824468 2.04654255 7.90824468 0 5 C-0.1875 2.3125 -0.1875 2.3125 0 0 Z " fill="#2A3C4C" transform="translate(378,507)"/>
<path d="M0 0 C4.62 0 9.24 0 14 0 C14 0.33 14 0.66 14 1 C8.555 1.495 8.555 1.495 3 2 C3 2.66 3 3.32 3 4 C2.01 4 1.02 4 0 4 C0 4.66 0 5.32 0 6 C-0.66 5.67 -1.32 5.34 -2 5 C-2 4.01 -2 3.02 -2 2 C-1.34 2 -0.68 2 0 2 C0 1.34 0 0.68 0 0 Z " fill="#192C3F" transform="translate(386,544)"/>
<path d="M0 0 C1.32 1.32 2.64 2.64 4 4 C2.52307692 8.67692308 2.52307692 8.67692308 -0.125 10.3125 C-1.053125 10.6528125 -1.053125 10.6528125 -2 11 C-1.125 3.375 -1.125 3.375 0 0 Z " fill="#EAEEEC" transform="translate(467,508)"/>
<path d="M0 0 C-1.65 1.65 -3.3 3.3 -5 5 C-6.32 4.34 -7.64 3.68 -9 3 C-8.67 2.01 -8.34 1.02 -8 0 C-5.13822943 -1.43088528 -3.06624227 -0.59991697 0 0 Z " fill="#273A49" transform="translate(433,684)"/>
<path d="M0 0 C0.99 0 1.98 0 3 0 C4.11658501 4.68965706 3.80619523 7.53763531 2 12 C1.34 11.67 0.68 11.34 0 11 C0.33 8.69 0.66 6.38 1 4 C0.01 4 -0.98 4 -2 4 C-1.34 2.68 -0.68 1.36 0 0 Z " fill="#162C40" transform="translate(379,548)"/>
<path d="M0 0 C-0.99 1.485 -0.99 1.485 -2 3 C-2.99 3 -3.98 3 -5 3 C-5.33 2.01 -5.66 1.02 -6 0 C-8.64 0 -11.28 0 -14 0 C-14 -0.66 -14 -1.32 -14 -2 C-8.16605611 -3.10643764 -5.23420787 -3.27137992 0 0 Z " fill="#283B4B" transform="translate(614,461)"/>
<path d="M0 0 C4.0042343 3.49087093 5.62671065 5.64951939 6 11 C5.01 11.495 5.01 11.495 4 12 C3.32645501 10.56570999 2.66140299 9.12742943 2 7.6875 C1.62875 6.88699219 1.2575 6.08648438 0.875 5.26171875 C0 3 0 3 0 0 Z " fill="#2B3949" transform="translate(522,547)"/>
<path d="M0 0 C-1.65 1.98 -3.3 3.96 -5 6 C-6.32 5.34 -7.64 4.68 -9 4 C-8 1 -8 1 -6.1875 -0.25 C-3.66056586 -1.11637742 -2.47778006 -0.88492145 0 0 Z " fill="#E8ECEE" transform="translate(564,632)"/>
<path d="M0 0 C2.16874252 0.50603992 3.99967627 0.99983813 6 2 C6.625 5.0625 6.625 5.0625 7 8 C5 8 5 8 3.5 6.625 C3.005 6.08875 2.51 5.5525 2 5 C1.34 4.34 0.68 3.68 0 3 C0 2.01 0 1.02 0 0 Z " fill="#20303C" transform="translate(517,459)"/>
<path d="M0 0 C2.97 1.98 2.97 1.98 6 4 C5.34 5.32 4.68 6.64 4 8 C1.525 7.01 1.525 7.01 -1 6 C-1.042721 4.33388095 -1.04063832 2.66617115 -1 1 C-0.67 0.67 -0.34 0.34 0 0 Z " fill="#EDF1F0" transform="translate(377,408)"/>
<path d="M0 0 C4.875 2.75 4.875 2.75 6 5 C5.34 5.66 4.68 6.32 4 7 C4 6.34 4 5.68 4 5 C3.34 5 2.68 5 2 5 C2.33 5.99 2.66 6.98 3 8 C2.01 7.67 1.02 7.34 0 7 C-1.17755913 4.05610218 -1.03348696 3.10046087 0 0 Z " fill="#2C3F4E" transform="translate(610,631)"/>
<path d="M0 0 C0.99 0.33 1.98 0.66 3 1 C2.67 1.99 2.34 2.98 2 4 C2.66 4.33 3.32 4.66 4 5 C3.01 6.32 2.02 7.64 1 9 C0.34 8.67 -0.32 8.34 -1 8 C-0.7525 7.13375 -0.7525 7.13375 -0.5 6.25 C0.14462031 3.73335631 0.14462031 3.73335631 0 0 Z " fill="#ECF2F1" transform="translate(465,632)"/>
<path d="M0 0 C0 1.32 0 2.64 0 4 C-2.96687001 5.64826111 -5.65626525 6.44271087 -9 7 C-3.65789474 0 -3.65789474 0 0 0 Z " fill="#273641" transform="translate(568,544)"/>
<path d="M0 0 C2.91227269 3.28804981 4.49701212 5.59885603 5 10 C3.68 9.67 2.36 9.34 1 9 C0.855625 8.401875 0.71125 7.80375 0.5625 7.1875 C0.1127561 5.43849596 -0.42892341 3.71322977 -1 2 C-0.67 1.34 -0.34 0.68 0 0 Z " fill="#E4EBEF" transform="translate(376,508)"/>
<path d="M0 0 C0.66 0.33 1.32 0.66 2 1 C2.59355614 3.64860427 2.74209269 6.29197322 3 9 C1.68 8.67 0.36 8.34 -1 8 C-1.125 2.25 -1.125 2.25 0 0 Z " fill="#E9F0ED" transform="translate(373,499)"/>
<path d="M0 0 C0.66 1.32 1.32 2.64 2 4 C-0.64 4.66 -3.28 5.32 -6 6 C-6.33 5.01 -6.66 4.02 -7 3 C-4.69 2.01 -2.38 1.02 0 0 Z " fill="#DEE3E7" transform="translate(522,514)"/>
<path d="M0 0 C0 3 0 3 -1 6 C-1.66 6 -2.32 6 -3 6 C-3.33 6.66 -3.66 7.32 -4 8 C-8 8 -8 8 -10 7 C-8.9171875 6.38125 -8.9171875 6.38125 -7.8125 5.75 C-5.02030138 4.01263197 -2.52987415 2.09618143 0 0 Z " fill="#DFE5E9" transform="translate(524,598)"/>
<path d="M0 0 C1.65 0 3.3 0 5 0 C5.66 1.98 6.32 3.96 7 6 C6.01 6 5.02 6 4 6 C0 1.54285714 0 1.54285714 0 0 Z " fill="#283743" transform="translate(376,594)"/>
<path d="M0 0 C2.33094534 0.3496418 4.66404762 0.68554487 7 1 C7 1.33 7 1.66 7 2 C0.8894576 2.11269443 -4.95170514 1.89604368 -11 1 C-11 0.67 -11 0.34 -11 0 C-6.98036029 -0.69570687 -3.90228091 -1.21946279 0 0 Z " fill="#2E3C48" transform="translate(419,516)"/>
<path d="M0 0 C1.32 1.65 2.64 3.3 4 5 C3.01 6.485 3.01 6.485 2 8 C1.67 7.67 1.34 7.34 1 7 C0.34 7.66 -0.32 8.32 -1 9 C-2.0326802 6.21176345 -2.04509293 5.1322726 -1.0625 2.25 C-0.711875 1.5075 -0.36125 0.765 0 0 Z " fill="#E5EAEB" transform="translate(436,506)"/>
<path d="M0 0 C2.19470368 3.95046662 3 7.48763697 3 12 C0.9375 10.5 0.9375 10.5 -1 8 C-1.05928384 5.17593353 -0.55954815 2.79774073 0 0 Z " fill="#26333F" transform="translate(468,500)"/>
<path d="M0 0 C0.66 0.66 1.32 1.32 2 2 C0.02 4.31 -1.96 6.62 -4 9 C-4.66 8.67 -5.32 8.34 -6 8 C-4.73058503 4.08597051 -3.48832306 2.20927127 0 0 Z " fill="#E9EEF1" transform="translate(432,685)"/>
<path d="M0 0 C0.99 0.33 1.98 0.66 3 1 C2.360625 1.78375 1.72125 2.5675 1.0625 3.375 C-0.98142313 5.79539281 -0.98142313 5.79539281 -2 8 C-2.66 8 -3.32 8 -4 8 C-3.6875 5.125 -3.6875 5.125 -3 2 C-2.01 1.34 -1.02 0.68 0 0 Z " fill="#E9EEF2" transform="translate(560,546)"/>
<path d="M0 0 C0.33 0.99 0.66 1.98 1 3 C1.33 3.66 1.66 4.32 2 5 C2.33 5.99 2.66 6.98 3 8 C1.625 9.5 1.625 9.5 0 11 C-0.66 11 -1.32 11 -2 11 C-1.85892253 9.54119891 -1.71197585 8.08296449 -1.5625 6.625 C-1.48128906 5.81289063 -1.40007813 5.00078125 -1.31640625 4.1640625 C-1 2 -1 2 0 0 Z " fill="#1E2D3A" transform="translate(522,504)"/>
<path d="M0 0 C0.33 0.99 0.66 1.98 1 3 C-0.98 4.32 -2.96 5.64 -5 7 C-5.33 5.68 -5.66 4.36 -6 3 C-4.02 2.01 -2.04 1.02 0 0 Z " fill="#E9F0F2" transform="translate(383,456)"/>
<path d="M0 0 C0.66 0 1.32 0 2 0 C3.42944945 2.35438733 4.08661261 3.48032433 3.625 6.25 C3.41875 6.8275 3.2125 7.405 3 8 C1 7 1 7 -0.125 3.9375 C-0.41375 2.968125 -0.7025 1.99875 -1 1 C-0.67 0.67 -0.34 0.34 0 0 Z " fill="#283B44" transform="translate(433,464)"/>
<path d="M0 0 C0.33 0 0.66 0 1 0 C1.3125 2.75 1.3125 2.75 1 6 C-1.5 8.375 -1.5 8.375 -4 10 C-4.66 9.67 -5.32 9.34 -6 9 C-4.73046875 7.53515625 -3.4609375 6.0703125 -2.19140625 4.60546875 C-0.79128769 2.89287029 -0.79128769 2.89287029 0 0 Z " fill="#D8E1E5" transform="translate(618,592)"/>
<path d="M0 0 C0.99 0.33 1.98 0.66 3 1 C3.6875 3.0625 3.6875 3.0625 4 5 C3.34 5 2.68 5 2 5 C2.33 5.99 2.66 6.98 3 8 C2.34 8 1.68 8 1 8 C0.67 7.01 0.34 6.02 0 5 C0.33 4.34 0.66 3.68 1 3 C0.34 3 -0.32 3 -1 3 C-0.67 2.01 -0.34 1.02 0 0 Z " fill="#EFF3F1" transform="translate(434,544)"/>
<path d="M0 0 C2.97 0.495 2.97 0.495 6 1 C6 1.66 6 2.32 6 3 C6.66 3.33 7.32 3.66 8 4 C7.34 4.66 6.68 5.32 6 6 C3.96166576 4.7260411 1.96147874 3.38938077 0 2 C0 1.34 0 0.68 0 0 Z " fill="#E7EBED" transform="translate(427,457)"/>
<path d="M0 0 C0.33 0.99 0.66 1.98 1 3 C-1.57213134 4.61949011 -2.67669159 5.04408751 -5.75 4.625 C-6.4925 4.41875 -7.235 4.2125 -8 4 C-5.33440687 2.22293791 -2.9719385 1.12451727 0 0 Z " fill="#E3E8EC" transform="translate(613,411)"/>
<path d="M0 0 C0.598125 0.350625 1.19625 0.70125 1.8125 1.0625 C1.4825 1.7225 1.1525 2.3825 0.8125 3.0625 C-1.4975 2.7325 -3.8075 2.4025 -6.1875 2.0625 C-4.66896708 -0.97456585 -3.05066334 -1.30742714 0 0 Z " fill="#2A3C49" transform="translate(388.1875,330.9375)"/>
<path d="M0 0 C2 1 2 1 3 3 C2.67 3.66 2.34 4.32 2 5 C0.35 4.67 -1.3 4.34 -3 4 C-3 3.01 -3 2.02 -3 1 C-2.01 0.67 -1.02 0.34 0 0 Z " fill="#F3F5F8" transform="translate(515,689)"/>
<path d="M0 0 C1.65 0.33 3.3 0.66 5 1 C5 1.66 5 2.32 5 3 C4.34 3.66 3.68 4.32 3 5 C1.68 5 0.36 5 -1 5 C-0.67 3.35 -0.34 1.7 0 0 Z " fill="#1A2F3C" transform="translate(469,635)"/>
<path d="M0 0 C0.66 0.33 1.32 0.66 2 1 C1.8125 3.375 1.8125 3.375 1 6 C-1.5625 7.3125 -1.5625 7.3125 -4 8 C-4 7.01 -4 6.02 -4 5 C-2.68 4.67 -1.36 4.34 0 4 C0 2.68 0 1.36 0 0 Z " fill="#2A3943" transform="translate(612,595)"/>
<path d="M0 0 C1.98 0.99 1.98 0.99 4 2 C4 5.10551666 3.4606285 6.35261084 2 9 C0 3.375 0 3.375 0 0 Z " fill="#ECF2F3" transform="translate(435,462)"/>
<path d="M0 0 C0.99 0.33 1.98 0.66 3 1 C1.91926148 3.16147703 0.80636736 4.41039672 -1 6 C-1.66 6 -2.32 6 -3 6 C-3 6.66 -3 7.32 -3 8 C-3.66 7.67 -4.32 7.34 -5 7 C-5 5 -5 5 -2.5 2.375 C-1.675 1.59125 -0.85 0.8075 0 0 Z " fill="#EDF1F5" transform="translate(616,682)"/>
<path d="M0 0 C0.33 0.99 0.66 1.98 1 3 C-0.8125 6.1875 -0.8125 6.1875 -3 9 C-3.66 9 -4.32 9 -5 9 C-3.90931332 5.22454612 -3.0916909 2.52956528 0 0 Z " fill="#33434E" transform="translate(562,461)"/>
<path d="M0 0 C1.32 0.66 2.64 1.32 4 2 C2.68 2.99 1.36 3.98 0 5 C-0.99 4.01 -1.98 3.02 -3 2 C-2.01 1.34 -1.02 0.68 0 0 Z " fill="#2A3A46" transform="translate(566,630)"/>
<path d="M0 0 C3.3 0 6.6 0 10 0 C10 0.33 10 0.66 10 1 C6.37 1.66 2.74 2.32 -1 3 C-0.67 2.01 -0.34 1.02 0 0 Z " fill="#F0F8FA" transform="translate(477,627)"/>
<path d="M0 0 C0.33 0.99 0.66 1.98 1 3 C1.66 3.33 2.32 3.66 3 4 C2.67 5.98 2.34 7.96 2 10 C0.04224922 7.06337384 -0.56073149 5.4262944 -1 2 C-0.67 1.34 -0.34 0.68 0 0 Z " fill="#EEF3F7" transform="translate(618,548)"/>
<path d="M0 0 C2.31 0 4.62 0 7 0 C7 0.66 7 1.32 7 2 C5.35 2.66 3.7 3.32 2 4 C1.34 2.68 0.68 1.36 0 0 Z " fill="#2C3A48" transform="translate(425,513)"/>
<path d="M0 0 C0.33 0.66 0.66 1.32 1 2 C2.32 2 3.64 2 5 2 C5.66 3.65 6.32 5.3 7 7 C4 7 4 7 1.8125 5.1875 C0 3 0 3 0 0 Z " fill="#F0F2F2" transform="translate(553,505)"/>
<path d="M0 0 C0.99 0.66 1.98 1.32 3 2 C1.35 3.32 -0.3 4.64 -2 6 C-2.66 5.67 -3.32 5.34 -4 5 C-2.68 3.35 -1.36 1.7 0 0 Z " fill="#2E3F4D" transform="translate(380,461)"/>
<path d="M0 0 C0.99 0.33 1.98 0.66 3 1 C3.6875 3.3125 3.6875 3.3125 4 6 C2.5625 7.8125 2.5625 7.8125 1 9 C-0.0730756 5.7807732 0.20053275 5.09793558 1 2 C0.67 1.34 0.34 0.68 0 0 Z " fill="#EBEEF1" transform="translate(467,456)"/>
<path d="M0 0 C0.99 0.33 1.98 0.66 3 1 C3 1.99 3 2.98 3 4 C2.01 4.33 1.02 4.66 0 5 C-0.99 4.01 -1.98 3.02 -3 2 C-2.01 1.34 -1.02 0.68 0 0 Z " fill="#E7ECED" transform="translate(521,456)"/>
<path d="M0 0 C1.32 0.33 2.64 0.66 4 1 C3.67 2.65 3.34 4.3 3 6 C2.34 6 1.68 6 1 6 C0.67 4.02 0.34 2.04 0 0 Z " fill="#F5F6F7" transform="translate(554,636)"/>
<path d="M0 0 C2.475 0.99 2.475 0.99 5 2 C5 2.99 5 3.98 5 5 C2.69 4.34 0.38 3.68 -2 3 C-1.34 2.01 -0.68 1.02 0 0 Z " fill="#DCE3E8" transform="translate(608,627)"/>
<path d="M0 0 C0.33 0.66 0.66 1.32 1 2 C-2.08809695 3.76462683 -3.23312136 4 -7 4 C-7 3.34 -7 2.68 -7 2 C-4.69 1.34 -2.38 0.68 0 0 Z " fill="#33434E" transform="translate(575,600)"/>
<path d="M0 0 C2.475 0.495 2.475 0.495 5 1 C5 1.66 5 2.32 5 3 C3.35 3.66 1.7 4.32 0 5 C0 3.35 0 1.7 0 0 Z " fill="#EEF4F8" transform="translate(471,456)"/>
</svg>
